<svg width="600" height="600" viewBox="0 0 600 600" fill="none" xmlns="http://www.w3.org/2000/svg">
<circle cx="300" cy="300" r="300" fill="black"/>
<path d="M167.406 187.404C167.406 203.006 155.133 215.433 140.262 215.433C125.39 215.433 113.117 203.006 113.117 187.404C113.117 171.802 125.39 159.375 140.262 159.375C155.133 159.375 167.406 171.802 167.406 187.404Z" fill="#BF1919" stroke="#BF1919" stroke-width="9.375"/>
<path d="M198.685 157.564H361.157C367.776 157.564 370.386 166.141 364.889 169.828C360.047 173.077 358.441 179.458 361.168 184.612L363.834 189.648C364.602 191.1 364.838 192.776 364.5 194.384L359.644 217.471C359.231 219.432 360.026 221.449 361.665 222.602C361.768 222.674 361.788 222.729 361.796 222.756C361.81 222.801 361.815 222.875 361.787 222.963C361.759 223.052 361.712 223.11 361.675 223.138C361.653 223.156 361.605 223.189 361.479 223.189H198.685C194.802 223.189 191.654 220.041 191.654 216.158V164.595C191.654 160.712 194.802 157.564 198.685 157.564Z" fill="white" stroke="white" stroke-width="4.6875"/>
<path d="M389.37 157.564H493.999C497.882 157.564 501.03 160.712 501.03 164.595V216.068C501.03 219.978 497.841 223.136 493.932 223.099L384.093 222.057C382.105 222.038 380.218 221.178 378.899 219.691L374.67 214.923C372.321 212.274 372.308 208.291 374.64 205.627L379.76 199.777C383.055 196.013 383.597 190.573 381.11 186.232L379.74 183.841C378.003 180.81 378.755 176.963 381.505 174.809L386.459 170.93C389.48 168.565 390 164.193 387.619 161.185C386.459 159.72 387.502 157.564 389.37 157.564Z" fill="white" stroke="white" stroke-width="4.6875"/>
<path d="M280.723 272.408H388.172C389.989 272.408 391.735 273.111 393.045 274.37L407.442 288.212C409.759 290.44 410.27 293.955 408.684 296.75L392.603 325.096C391.354 327.297 389.019 328.658 386.488 328.658H280.723C276.84 328.658 273.692 325.51 273.692 321.627V279.439C273.692 275.556 276.84 272.408 280.723 272.408Z" fill="white" stroke="white" stroke-width="4.6875"/>
<path d="M422.45 272.408H493.999C497.882 272.408 501.03 275.556 501.03 279.439V321.627C501.03 325.51 497.882 328.658 493.999 328.658H448.096C445.486 328.658 443.09 327.211 441.874 324.901L421.976 287.095C421.217 285.652 420.14 284.4 418.827 283.433C414.081 279.935 416.554 272.408 422.45 272.408Z" fill="white" stroke="white" stroke-width="4.6875"/>
<path d="M193.915 307.983L212.158 319.681C213.24 320.375 214.681 320.067 215.385 318.99L241.074 279.688" stroke="#BF1919" stroke-width="18.8636" stroke-linecap="round"/>
<path d="M168.561 413.15C168.561 428.63 156.012 441.179 140.532 441.179C125.052 441.179 112.503 428.63 112.503 413.15C112.503 397.67 125.052 385.121 140.532 385.121C156.012 385.121 168.561 397.67 168.561 413.15Z" fill="#BF1919" stroke="#BF1919" stroke-width="9.375"/>
<path d="M198.688 377.877H240.875C244.758 377.877 247.906 381.025 247.906 384.908V436.47C247.906 440.354 244.758 443.502 240.875 443.502H198.687C194.804 443.502 191.656 440.354 191.656 436.47V384.908C191.656 381.025 194.804 377.877 198.688 377.877Z" fill="white" stroke="white" stroke-width="4.6875"/>
<path d="M273.685 377.877H369.121C374.265 377.877 377.668 383.22 375.492 387.881L367.161 405.733C365.695 408.875 365.695 412.504 367.161 415.645L375.492 433.497C377.668 438.158 374.265 443.502 369.121 443.502H273.685C269.802 443.502 266.654 440.354 266.654 436.47V384.908C266.654 381.025 269.802 377.877 273.685 377.877Z" fill="white" stroke="white" stroke-width="4.6875"/>
<path d="M404.89 377.877H493.999C497.882 377.877 501.03 381.025 501.03 384.908V436.47C501.03 440.354 497.882 443.502 493.999 443.502H404.89C402.38 443.502 400.06 442.163 398.803 439.99L383.897 414.208C382.638 412.031 382.638 409.347 383.897 407.17L398.803 381.388C400.06 379.215 402.38 377.877 404.89 377.877Z" fill="white" stroke="white" stroke-width="4.6875"/>
<path d="M414.973 308.241C415.858 306.599 418.214 306.599 419.099 308.241L429.382 327.324C430.223 328.886 429.093 330.78 427.319 330.78H406.753C404.979 330.78 403.848 328.886 404.69 327.324L414.973 308.241Z" fill="white"/>
</svg>
